<?xml version="1.0" encoding="iso-8859-1"?>
<!-- Generator: Adobe Illustrator 19.0.0, SVG Export Plug-In . SVG Version: 6.00 Build 0)  -->
<svg version="1.1" id="st-light" xmlns="http://www.w3.org/2000/svg" xmlns:xlink="http://www.w3.org/1999/xlink" x="0px" y="0px"
	 viewBox="0 0 511.985 511.985" width="60pt" height="60pt" style="enable-background:new 0 0 511.985 511.985;" xml:space="preserve">
<g>
	<polygon style="fill:#FFCE54;" points="116.542,64.029 74.263,64.06 41.873,511.953 150.135,511.953 	"/>
	<polygon style="fill:#FFCE54;" points="437.532,64.029 395.253,64.06 362.863,511.953 471.126,511.953 	"/>
</g>
<rect x="239.012" y="415.992" style="fill:#434A54;" width="38.999" height="85.34"/>
<g>
	<rect x="65.262" y="12.092" style="fill:#FFCE54;" width="68.08" height="32.749"/>
	<rect x="385.252" y="12.092" style="fill:#FFCE54;" width="63.748" height="32.749"/>
</g>
<path d="M319.989,490.657H287.99v-74.67c0-5.874-4.765-10.655-10.655-10.655h-10.672V117.34c0-23.718,3.359-42.936,10-57.154
	c5.609-12.031,13.624-20.812,24.515-26.859c19.124-10.625,44.671-11.828,72.153-11.968v21.312c0,5.89,4.766,10.671,10.656,10.671
	h63.998c5.891,0,10.672-4.781,10.672-10.671V10.672C458.657,4.781,453.876,0,447.985,0h-63.998c-32.812,0-66.748,0-93.169,14.688
	c-15.718,8.718-27.28,21.843-34.827,39.592c-7.531-17.75-19.093-30.874-34.811-39.592C194.759,0,160.822,0,127.995,0H63.997
	c-5.89,0-10.656,4.781-10.656,10.672v31.999c0,5.89,4.766,10.671,10.656,10.671h63.998c5.906,0,10.672-4.781,10.672-10.671V21.359
	c27.483,0.141,53.029,1.344,72.154,11.968c23.546,13.078,34.515,39.78,34.515,84.013v287.992h-10.671
	c-5.891,0-10.672,4.781-10.672,10.655v74.67h-31.999c-5.89,0-10.656,4.78-10.656,10.671s4.766,10.656,10.656,10.656h42.671h42.671
	h42.654c5.891,0,10.672-4.766,10.672-10.656S325.88,490.657,319.989,490.657z M437.329,31.999h-42.67V21.343h42.67L437.329,31.999
	L437.329,31.999z M117.339,31.999h-42.67V21.343h42.67V31.999z M245.335,490.657v-63.998h21.328v63.998L245.335,490.657
	L245.335,490.657z"/>
<path d="M395.456,64.029c-5.875-0.437-10.984,3.969-11.438,9.844l-31.999,426.643c-0.438,5.875,3.969,11,9.844,11.438
	c0.266,0.031,0.547,0.031,0.812,0.031c5.53,0,10.202-4.25,10.624-9.859l32-426.658C405.737,69.592,401.331,64.467,395.456,64.029z"
	/>
<path d="M479.953,500.515L447.954,73.873c-0.438-5.875-5.547-10.281-11.422-9.844c-5.875,0.438-10.28,5.562-9.843,11.438
	l31.999,426.658c0.422,5.609,5.094,9.859,10.625,9.859c0.266,0,0.531,0,0.812-0.031C476.001,511.515,480.406,506.39,479.953,500.515
	z"/>
<path d="M75.466,64.029c-5.875-0.437-10.984,3.969-11.438,9.844L32.029,500.515c-0.437,5.875,3.969,11,9.844,11.438
	c0.266,0.031,0.547,0.031,0.812,0.031c5.531,0,10.203-4.25,10.625-9.859L85.309,75.467C85.746,69.592,81.34,64.467,75.466,64.029z"
	/>
<path d="M127.979,73.873c-0.453-5.875-5.562-10.281-11.437-9.844c-5.875,0.438-10.281,5.562-9.843,11.438l31.999,426.658
	c0.422,5.609,5.093,9.859,10.625,9.859c0.266,0,0.547,0,0.812-0.031c5.875-0.438,10.281-5.562,9.843-11.438L127.979,73.873z"/>
<g>
</g>
<g>
</g>
<g>
</g>
<g>
</g>
<g>
</g>
<g>
</g>
<g>
</g>
<g>
</g>
<g>
</g>
<g>
</g>
<g>
</g>
<g>
</g>
<g>
</g>
<g>
</g>
<g>
</g>
</svg>
